<svg width="24" height="24" viewBox="0 0 24 24" fill="none" xmlns="http://www.w3.org/2000/svg">
<path fill-rule="evenodd" clip-rule="evenodd" d="M24 24V3C24 1.35 22.65 0 21 0H3C1.366 0 0 1.366 0 3V16.5C0 18.134 1.366 19.5 3 19.5H18.75L24 24ZM19.8598 16.5H3.01849C3.01547 16.4978 3.01205 16.4949 3.00857 16.4914C3.00589 16.4888 3.00357 16.4861 3.00164 16.4837L3 16.4815V3.01849C3.00222 3.01547 3.00508 3.01205 3.00857 3.00857C3.01205 3.00509 3.01547 3.00222 3.01849 3H21V17.4773L19.8598 16.5Z" fill="#40AFFF"/>
</svg>
