<svg width="16" height="16" viewBox="0 0 16 16" fill="none" xmlns="http://www.w3.org/2000/svg">
<path d="M8 0C3.64267 0 0 3.64267 0 8C0 12.3573 3.64266 16 8 16C12.3573 16 16 12.3573 16 8C16 3.64266 12.3573 0 8 0ZM7 14.32C5.26864 14.0438 3.68393 13.0332 2.70319 11.58C1.72245 10.1267 1.37828 8.27893 1.77 6.57L6 10.68V11.48C6 12.36 6.12 12.8 7 12.8V14.32ZM12.72 12.32C12.52 11.66 11.72 11 11 11H10V9C10 8.56 9.44 8 9 8H5V6H6C6.44 6 7 5.44 7 5V4H9C9.88 4 10.4 3.28 10.4 2.4V2.07C12.3216 2.85114 13.7733 4.56167 14.2317 6.5847C14.69 8.60773 14.1173 10.7769 12.72 12.31V12.32Z" fill="black"/>
</svg>
